<svg width="32" height="32" viewBox="0 0 32 32" fill="none" xmlns="http://www.w3.org/2000/svg">
<g clip-path="url(#clip0_1_28)">
<path d="M8.12879 0.514192C9.24153 0.748454 10.6024 1.33468 12.2403 2.36594L12.3805 2.45422L12.5421 2.4175C15.5305 1.73831 18.6545 1.73831 21.5032 2.41657L21.6707 2.45644L21.8148 2.36223C23.3864 1.3346 24.733 0.749133 25.8672 0.514477C26.6264 0.357403 27.1792 0.372548 27.5938 0.476199C27.8604 0.566323 28.0438 0.74964 28.1425 1.04576C28.8129 2.79002 28.9452 4.50955 28.5477 6.23167L28.5036 6.42297L28.6279 6.57491C29.8247 8.03769 30.4768 9.89095 30.4768 11.8625C30.4768 18.2111 27.6705 21.0479 22.7455 22.2791L22.3265 22.3839L22.4631 22.7937C22.7163 23.5532 22.8581 24.4753 22.8581 25.2991V30.5629C22.8581 31.1731 22.4831 31.5481 21.8729 31.5481C21.2627 31.5481 20.8877 31.1731 20.8877 30.5629V25.1606C21.0295 24.0507 20.6454 23.0903 19.8009 22.2458C19.4964 21.9414 19.4218 21.5933 19.5738 21.3653L19.629 21.2405C19.7048 20.9376 20.0105 20.7083 20.4756 20.5533C25.7877 20.0133 28.5064 17.7205 28.5064 11.8625C28.5064 10.2061 27.8932 8.59644 26.7431 7.30257C26.4759 7.03437 26.4246 6.67547 26.5465 6.30959C26.9681 5.18618 27.005 4.00683 26.6936 2.76156L26.6011 2.39154L26.2271 2.46634C25.2793 2.65591 24.0798 3.22038 22.4763 4.33048C22.2906 4.50714 22.0533 4.52871 21.7223 4.41841C18.8748 3.60446 15.7884 3.56376 12.9312 4.29191L12.4821 4.41327C12.1192 4.53381 11.8436 4.51084 11.5671 4.32654C10.1396 3.25513 8.8746 2.67684 7.82213 2.46634L7.44813 2.39154L7.35563 2.76156C7.04431 4.00683 7.08116 5.18618 7.50768 6.32355C7.60877 6.73741 7.58412 7.03456 7.44205 7.18571L7.3062 7.30257C6.15609 8.59644 5.5429 10.2061 5.5429 11.8625C5.5429 17.7205 8.26154 20.0133 13.659 20.5717C14.0364 20.5738 14.3175 20.8293 14.4202 21.2405C14.5213 21.6446 14.4317 22.0625 14.2484 22.2458C13.5048 22.9894 13.1616 23.9046 13.1616 25.022V30.4244C13.1616 31.0346 12.7866 31.4096 12.1764 31.4096C11.5662 31.4096 11.1912 31.0346 11.1912 30.4244V27.5973L10.7254 27.675C8.17816 28.0995 6.48058 27.4306 4.95331 25.8544L4.7778 25.6685C4.51737 25.3856 4.4381 25.2908 3.89762 24.6302L3.53602 24.1804C3.33323 23.9312 3.2556 23.8469 3.10901 23.7003C2.79896 23.3902 2.50136 23.1953 2.16131 23.1103C1.65977 23.0095 1.29491 22.4124 1.46603 21.9846C1.57564 21.4684 2.10305 21.1161 2.52072 21.2106L2.60835 21.2378C3.69985 21.5669 4.30167 22.0827 5.50068 23.4816C7.02284 25.5767 8.191 26.2016 10.866 25.692L11.1912 25.6301V25.1606C11.1912 24.3249 11.3356 23.4219 11.5781 22.8157L11.7542 22.3754L11.2905 22.2761C6.43485 21.2356 3.57247 18.1455 3.57247 12.001C3.57247 10.0295 4.22454 8.17621 5.42136 6.71344L5.55387 6.55147L5.49638 6.35025C4.96957 4.50642 5.09807 2.80388 5.89052 1.0869C6.00552 0.74964 6.18884 0.566323 6.48496 0.467615C6.87167 0.372153 7.38494 0.357592 8.12879 0.514192Z" fill="#85776b"/>
</g>
<defs>
<clipPath id="clip0_1_28">
<rect width="32" height="32" fill="white"/>
</clipPath>
</defs>
</svg>
